<svg width="21" height="21" viewBox="0 0 21 21" fill="none" xmlns="http://www.w3.org/2000/svg">
<g id="image (5) 1" clip-path="url(#clip0_571_329)">
<path id="Vector" fill-rule="evenodd" clip-rule="evenodd" d="M13.4712 5.00028C13.4712 2.85712 11.5923 1.10028 9.29454 1.10028C6.99676 1.10028 5.11787 2.85818 5.11787 5.00028V6.60765H1.87232C1.78175 6.60511 1.69156 6.61985 1.60713 6.65101C1.5227 6.68216 1.44574 6.72909 1.38085 6.789C1.31595 6.84891 1.26444 6.92057 1.22938 6.99973C1.19432 7.07888 1.17642 7.16391 1.17676 7.24975V17.3203C1.17676 19.0992 2.73121 20.534 4.65676 20.534H10.6357C10.3917 20.1338 10.1939 19.71 10.0457 19.2698H4.65676C3.49565 19.2698 2.56787 18.4129 2.56787 17.3413V7.91397H5.1201V9.02765C5.1201 9.39186 5.42232 9.66975 5.81676 9.66975C5.90733 9.6723 5.99752 9.65755 6.08195 9.6264C6.16638 9.59524 6.24334 9.54831 6.30823 9.4884C6.37313 9.4285 6.42464 9.35683 6.4597 9.27767C6.49476 9.19852 6.51266 9.11349 6.51232 9.02765V7.91397H12.0801V9.02765C12.0801 9.39186 12.3823 9.66975 12.7768 9.66975C12.8674 9.67244 12.9576 9.6578 13.0421 9.6267C13.1266 9.5956 13.2036 9.54867 13.2686 9.48874C13.3335 9.4288 13.385 9.35707 13.42 9.27785C13.455 9.19863 13.4728 9.11353 13.4723 9.02765V7.91397H16.0245V10.8382C16.4882 10.8045 16.9542 10.8151 17.4157 10.8698V7.24975C17.416 7.16391 17.3981 7.07888 17.363 6.99973C17.328 6.92057 17.2765 6.84891 17.2116 6.789C17.1467 6.72909 17.0697 6.68216 16.9853 6.65101C16.9009 6.61985 16.8107 6.60511 16.7201 6.60765H13.4723V5.00028H13.4712ZM9.29454 2.38554C10.8257 2.38554 12.0779 3.56449 12.0779 5.00028V6.6066H6.51121V5.00028C6.51121 3.56449 7.76343 2.38554 9.29454 2.38554Z" fill="black"/>
<path id="Vector_2" d="M16.5583 14.0571C16.3569 14.0574 16.1639 14.1334 16.0216 14.2684C15.8793 14.4034 15.7994 14.5863 15.7994 14.7771V16.5771H13.8994C13.7972 16.5734 13.6953 16.5893 13.5998 16.6238C13.5042 16.6583 13.417 16.7107 13.3433 16.7778C13.2697 16.845 13.211 16.9256 13.171 17.0147C13.131 17.1038 13.1104 17.1997 13.1104 17.2966C13.1104 17.3935 13.131 17.4893 13.171 17.5785C13.211 17.6676 13.2697 17.7482 13.3433 17.8153C13.417 17.8825 13.5042 17.9349 13.5998 17.9694C13.6953 18.0039 13.7972 18.0198 13.8994 18.0161H15.7994V19.8161C15.7955 19.9129 15.8122 20.0094 15.8487 20.0999C15.8851 20.1905 15.9404 20.2731 16.0113 20.3429C16.0822 20.4127 16.1672 20.4682 16.2613 20.5061C16.3554 20.544 16.4566 20.5636 16.5589 20.5636C16.6611 20.5636 16.7623 20.544 16.8564 20.5061C16.9505 20.4682 17.0355 20.4127 17.1064 20.3429C17.1773 20.2731 17.2326 20.1905 17.269 20.0999C17.3055 20.0094 17.3222 19.9129 17.3183 19.8161V18.015H19.2183C19.4199 18.015 19.6132 17.9392 19.7557 17.8041C19.8982 17.6691 19.9783 17.486 19.9783 17.295C19.9783 17.1041 19.8982 16.9209 19.7557 16.7859C19.6132 16.6509 19.4199 16.575 19.2183 16.575H17.3183V14.775C17.318 14.5842 17.2378 14.4014 17.0953 14.2666C16.9528 14.1318 16.7597 14.0561 16.5583 14.0561V14.0571Z" fill="black"/>
</g>
<defs>
<clipPath id="clip0_571_329">
<rect width="20" height="20" fill="white" transform="translate(0.916992 0.857117)"/>
</clipPath>
</defs>
</svg>
