<svg width="22" height="22" viewBox="0 0 22 22" fill="none" xmlns="http://www.w3.org/2000/svg">
<g id="dUMnmK01 1" clip-path="url(#clip0_804_1112)">
<g id="Group">
<path id="Vector" d="M21.9318 5.53124C21.8863 5.53693 21.8408 5.4346 21.8124 5.25837C21.6703 4.45682 21.3406 3.6439 20.8915 2.98447C19.8455 1.44959 18.2083 0.324007 16.6279 0.0568233C16.1845 -0.0170785 5.53695 0.00566053 5.17312 0.0795623C4.49664 0.221681 3.71214 0.557082 3.03566 1.00049C2.57519 1.2961 1.44393 2.44442 1.12558 2.92762C0.625321 3.69507 0.432039 4.14416 0.221704 5.05372C0.119378 5.51419 0.113693 5.80411 0.113693 10.8863C0.113693 15.94 0.119378 16.2641 0.221704 16.7188C0.335399 17.2191 0.414985 17.4806 0.545735 17.7762C0.591213 17.8728 0.625321 17.9638 0.625321 17.9809C0.625321 17.9979 0.756071 18.231 0.920928 18.5039C1.7509 19.8909 3.21757 21.0904 4.60465 21.5054C5.52558 21.7783 5.34935 21.7726 10.9602 21.7726C15.9742 21.7726 16.2641 21.7669 16.7473 21.6646C17.6739 21.4599 18.1287 21.2666 18.9018 20.7607C19.3907 20.4367 20.3742 19.493 20.7607 18.9757C21.278 18.2765 21.6589 17.384 21.8124 16.5142C21.8408 16.338 21.8863 16.2356 21.9318 16.247C21.9829 16.2527 22 15.1101 22 10.8863C22 6.66251 21.9829 5.51987 21.9318 5.53124ZM20.107 16.3948C19.8455 17.3726 19.4532 18.0093 18.6858 18.7369C18.0093 19.385 17.3897 19.7374 16.5711 19.9592C16.1959 20.0558 15.8718 20.0672 10.9943 20.0672C6.04858 20.0672 5.79845 20.0615 5.38346 19.9592C4.55917 19.7431 3.93953 19.3736 3.20052 18.6403C2.50697 17.9524 2.16589 17.3953 1.92713 16.5312C1.8248 16.1674 1.81912 15.8661 1.81912 10.8863C1.81912 5.8439 1.8248 5.61083 1.93281 5.22427C2.1602 4.38861 2.51834 3.79171 3.21188 3.09248C3.91679 2.3762 4.65581 1.95553 5.53695 1.75657C6.02015 1.64855 6.21912 1.64855 11.1649 1.66561C16.6506 1.68266 16.3891 1.67129 17.168 1.98396C17.6796 2.18861 18.1059 2.47853 18.6233 2.96742C19.5044 3.80876 19.9251 4.51936 20.1183 5.51419C20.2207 6.02582 20.2207 6.08835 20.2093 11.1705C20.1979 15.4568 20.1866 16.0992 20.107 16.3948Z" fill="black" fill-opacity="0.6"/>
<path id="Vector_2" d="M15.093 11.3297C14.9225 10.9317 14.2687 10.7157 13.9333 10.9488C13.8651 11 13.3876 11.4661 12.8703 11.9834C12.2677 12.5917 11.9323 12.893 11.9096 12.8418C11.8982 12.7964 11.8755 11.3411 11.8698 9.6072C11.8527 6.56017 11.847 6.44648 11.739 6.28162C11.3354 5.67904 10.5623 5.67335 10.2553 6.26457C10.1928 6.38963 10.1757 6.98653 10.1757 9.59015C10.1757 11.4604 10.153 12.7964 10.1189 12.8475C10.0791 12.9157 9.86873 12.7338 9.11266 11.9891C8.58966 11.4718 8.09509 11.0057 8.0155 10.9488C7.93592 10.8976 7.76537 10.8578 7.61757 10.8578C7.29922 10.8578 7.0093 11.0739 6.85013 11.4206C6.64548 11.8811 6.6739 11.9209 8.70904 13.9674C10.3178 15.5762 10.5623 15.8036 10.7783 15.8547C11.2558 15.9741 11.3354 15.9173 13.2682 13.9958C14.2289 13.0351 15.0532 12.171 15.0987 12.0687C15.201 11.8413 15.1953 11.5628 15.093 11.3297Z" fill="black" fill-opacity="0.6"/>
</g>
</g>
<defs>
<clipPath id="clip0_804_1112">
<rect width="22" height="22" fill="white" transform="matrix(0 1 -1 0 22 0)"/>
</clipPath>
</defs>
</svg>
