<svg width="30" height="30" viewBox="0 0 30 30" fill="none" xmlns="http://www.w3.org/2000/svg">
<g id="svgexport-32 1" clip-path="url(#clip0_659_892)">
<path id="Vector" d="M22.7749 11.2301V18.7803C22.7774 18.9065 22.738 19.0299 22.6627 19.1311C22.5875 19.2324 22.4807 19.3059 22.3593 19.34L15.2247 21.8436C15.1542 21.8775 15.0771 21.8951 14.9989 21.8951C14.9207 21.8951 14.8435 21.8775 14.7731 21.8436L7.60583 19.34C7.49012 19.3005 7.39031 19.2247 7.32131 19.1238C7.25231 19.0229 7.21774 18.9024 7.22292 18.7803L7.18692 11.2301C7.1921 11.1011 7.23894 10.9772 7.32035 10.877C7.40169 10.7767 7.51331 10.7054 7.63856 10.6738L14.8091 8.17015C14.8666 8.13613 14.9321 8.11819 14.9989 8.11819C15.0657 8.11819 15.1312 8.13613 15.1887 8.17015L22.3887 10.6738C22.5038 10.7131 22.6032 10.7884 22.6722 10.8886C22.7412 10.9888 22.776 11.1086 22.7716 11.2301H22.7749ZM8.19492 28.0716C8.05937 27.9958 7.95901 27.8698 7.91551 27.7207C7.87194 27.5718 7.88865 27.4115 7.96194 27.2747C8.03531 27.1379 8.15946 27.0353 8.30769 26.9891C8.45592 26.9429 8.61642 26.9567 8.75456 27.0275C11.5165 28.4677 14.6902 28.9124 17.7416 28.2869C20.793 27.6614 23.5358 26.004 25.5084 23.5934C27.4811 21.1828 28.5631 18.1663 28.5726 15.0515C28.5819 11.9366 27.5181 8.91367 25.56 6.4912C25.5438 6.46228 25.5175 6.44034 25.4862 6.42963C25.4549 6.41892 25.4206 6.42019 25.3902 6.43319C25.3597 6.44619 25.3351 6.47001 25.3211 6.50006C25.3072 6.5301 25.3048 6.56426 25.3146 6.59593L25.4193 7.01488C25.6287 7.78069 24.48 8.05888 24.2706 7.34215L23.436 4.13811C23.4068 4.03833 23.4054 3.93245 23.4321 3.83195C23.4587 3.73145 23.5124 3.64017 23.5872 3.568C23.6621 3.49584 23.7553 3.44555 23.8567 3.42259C23.9581 3.39963 24.0639 3.40487 24.1626 3.43775L27.3306 4.2723C27.406 4.29379 27.4764 4.32992 27.5379 4.37864C27.5993 4.42735 27.6506 4.4877 27.6887 4.55623C27.7269 4.62476 27.7512 4.70014 27.7602 4.77804C27.7692 4.85595 27.7628 4.93487 27.7413 5.0103C27.7197 5.08573 27.6836 5.15618 27.6349 5.21764C27.5862 5.2791 27.5258 5.33037 27.4573 5.36851C27.3888 5.40664 27.3134 5.43092 27.2355 5.43992C27.1576 5.44894 27.0787 5.44251 27.0033 5.42102L26.3782 5.24757C26.2375 5.21157 26.1327 5.3523 26.2375 5.45375C28.4423 8.06051 29.6744 11.3516 29.7235 14.7655C29.7725 18.1794 28.6354 21.5045 26.5063 24.1736C24.3772 26.8426 21.3879 28.6901 18.0485 29.401C14.7091 30.1119 11.2265 29.642 8.19492 28.0716ZM22.1498 2.11557C22.8436 2.49848 22.2546 3.54248 21.5935 3.15957C18.8448 1.6299 15.6498 1.10353 12.5557 1.67061C9.4616 2.23768 6.6609 3.86292 4.63338 6.26795C2.60585 8.67299 1.47763 11.7082 1.44195 14.8536C1.40627 17.999 2.46535 21.059 4.4378 23.5094C4.45961 23.534 4.48914 23.5503 4.52152 23.5558C4.5539 23.5612 4.58717 23.5554 4.61582 23.5394C4.64447 23.5233 4.66678 23.498 4.67904 23.4676C4.6913 23.4371 4.69279 23.4033 4.68326 23.372L4.57853 22.9891C4.36907 22.2232 5.5178 21.9451 5.72726 22.6618L6.5618 25.8625C6.59295 25.9629 6.59582 26.0701 6.57011 26.1721C6.54439 26.2741 6.49109 26.367 6.41604 26.4407C6.34098 26.5144 6.24708 26.566 6.14463 26.5899C6.04218 26.6137 5.93514 26.6089 5.83526 26.576L2.66726 25.7414C1.90144 25.5319 2.21562 24.3832 2.94544 24.5926L3.59998 24.7661C3.74071 24.8021 3.84544 24.6614 3.74071 24.5239C-1.19783 18.7476 -0.814925 9.97997 4.57853 4.58648C6.84267 2.32384 9.78137 0.859114 12.9511 0.413384C16.1208 -0.0323481 19.3495 0.565108 22.1498 2.11557ZM15.5716 14.2574V20.2792C15.5725 20.3037 15.5794 20.3276 15.5914 20.349C15.6034 20.3703 15.6205 20.3885 15.6409 20.4019C15.6614 20.4153 15.6848 20.4237 15.7092 20.4262C15.7336 20.4288 15.7583 20.4256 15.7811 20.4167L21.5215 18.3974C21.5575 18.3647 21.6262 18.3287 21.6262 18.26V12.2414C21.6262 12.1694 21.5215 12.1007 21.42 12.1367L15.6764 14.12C15.6076 14.1527 15.5716 14.1887 15.5716 14.2574ZM14.3902 20.2792V14.2574C14.3896 14.2308 14.3831 14.2047 14.3712 14.181C14.3593 14.1572 14.3423 14.1363 14.3215 14.12L11.988 13.3181C11.965 13.3098 11.9405 13.307 11.9163 13.3101C11.8921 13.3132 11.869 13.322 11.8489 13.3357C11.8287 13.3494 11.8121 13.3678 11.8004 13.3892C11.7888 13.4106 11.7824 13.4345 11.7818 13.4589V15.6843C11.7822 15.7622 11.7672 15.8394 11.7376 15.9115C11.708 15.9836 11.6644 16.049 11.6093 16.1041C11.5542 16.1592 11.4887 16.2029 11.4166 16.2324C11.3446 16.2621 11.2673 16.2771 11.1895 16.2767C11.0337 16.2725 10.8854 16.2088 10.7751 16.0986C10.6649 15.9884 10.6012 15.8401 10.5971 15.6843V12.9352C10.5965 12.9086 10.59 12.8825 10.5781 12.8588C10.5662 12.835 10.5492 12.8141 10.5284 12.7978L8.56474 12.1432C8.46328 12.1072 8.35856 12.176 8.35856 12.248V18.2731C8.35856 18.3418 8.39128 18.3778 8.46328 18.4105L14.2036 20.4298C14.3084 20.4658 14.3771 20.3938 14.3771 20.2923L14.3902 20.2792ZM9.97201 11.3709L11.5036 11.8912C11.5094 11.8993 11.5169 11.9059 11.5258 11.9105C11.5346 11.915 11.5444 11.9174 11.5544 11.9174C11.5643 11.9174 11.5741 11.915 11.5829 11.9105C11.5917 11.9059 11.5993 11.8993 11.6051 11.8912L16.5829 10.1534C16.6516 10.1534 16.6876 10.0847 16.6876 10.0127C16.6854 9.98563 16.6736 9.96026 16.6544 9.9411C16.6353 9.92194 16.6099 9.91015 16.5829 9.90797L15.0513 9.3516H14.9466L9.97201 11.0927C9.9414 11.1009 9.91433 11.1189 9.89503 11.1441C9.87574 11.1693 9.86524 11.2001 9.86524 11.2318C9.86524 11.2634 9.87574 11.2942 9.89503 11.3194C9.91433 11.3446 9.9414 11.3626 9.97201 11.3709ZM13.7291 12.68L14.9466 13.0956H15.0513L20.0258 11.3578C20.0564 11.3495 20.0834 11.3315 20.1027 11.3063C20.122 11.2811 20.1325 11.2503 20.1325 11.2187C20.1325 11.187 20.122 11.1562 20.1027 11.131C20.0834 11.1059 20.0564 11.0878 20.0258 11.0796L18.7756 10.628H18.6709L13.7291 12.4149C13.5884 12.4476 13.5884 12.6243 13.7291 12.6931V12.68ZM20.1306 16.6956C20.2758 16.6534 20.4316 16.6687 20.5659 16.7384C20.7002 16.808 20.8025 16.9266 20.8517 17.0696C20.9009 17.2126 20.8932 17.3691 20.8303 17.5066C20.7673 17.6441 20.6539 17.7521 20.5135 17.8083L18.5662 18.5021C18.4209 18.5443 18.265 18.5289 18.1308 18.4593C17.9965 18.3896 17.8942 18.2711 17.845 18.128C17.7957 17.9851 17.8034 17.8286 17.8664 17.6911C17.9294 17.5535 18.0428 17.4455 18.1833 17.3894L20.1306 16.6956Z" fill="black" fill-opacity="0.7"/>
</g>
<defs>
<clipPath id="clip0_659_892">
<rect width="30" height="30" fill="white"/>
</clipPath>
</defs>
</svg>
