<svg width="30" height="30" viewBox="0 0 30 30" fill="none" xmlns="http://www.w3.org/2000/svg">
<g id="Group 286">
<circle id="Ellipse 102" cx="15" cy="15" r="15" fill="#DD127B" fill-opacity="0.7"/>
<path id="Vector" d="M22.7394 21.2936L18.8856 17.4398C19.8135 16.2046 20.3143 14.7012 20.3126 13.1563C20.3126 9.21035 17.1023 6 13.1563 6C9.21035 6 6 9.21035 6 13.1563C6 17.1023 9.21035 20.3126 13.1563 20.3126C14.7012 20.3143 16.2046 19.8135 17.4398 18.8856L21.2936 22.7394C21.4887 22.9138 21.7431 23.0069 22.0047 22.9996C22.2662 22.9923 22.5151 22.8851 22.7001 22.7001C22.8851 22.5151 22.9923 22.2662 22.9996 22.0047C23.0069 21.7431 22.9138 21.4887 22.7394 21.2936ZM8.04466 13.1563C8.04466 12.1453 8.34446 11.157 8.90613 10.3164C9.46781 9.47583 10.2661 8.82065 11.2002 8.43376C12.1342 8.04688 13.162 7.94565 14.1536 8.14288C15.1451 8.34012 16.0559 8.82695 16.7708 9.54183C17.4857 10.2567 17.9725 11.1675 18.1698 12.1591C18.367 13.1506 18.2658 14.1784 17.8789 15.1125C17.492 16.0465 16.8368 16.8448 15.9962 17.4065C15.1556 17.9682 14.1673 18.268 13.1563 18.268C11.8011 18.2663 10.5019 17.7273 9.54363 16.769C8.58536 15.8107 8.04629 14.5115 8.04466 13.1563Z" fill="white"/>
</g>
</svg>
