<svg width="34" height="35" viewBox="0 0 34 35" fill="none" xmlns="http://www.w3.org/2000/svg">
<path d="M17 34.7107C26.3888 34.7107 34 26.9405 34 17.3554C34 7.77026 26.3888 0 17 0C7.61116 0 0 7.77026 0 17.3554C0 26.9405 7.61116 34.7107 17 34.7107Z" fill="#F9F9F9"/>
<path d="M33.5 17.3554C33.5 26.6741 26.103 34.2107 17 34.2107C7.897 34.2107 0.5 26.6741 0.5 17.3554C0.5 8.0366 7.897 0.5 17 0.5C26.103 0.5 33.5 8.0366 33.5 17.3554Z" stroke="black" stroke-opacity="0.3"/>
<g clip-path="url(#clip0_1083_17)">
<path d="M14.25 18.375L19.75 21.125M19.75 12.875L14.25 15.625M22.5 25.25C20.9812 25.25 19.75 24.0188 19.75 22.5C19.75 20.9812 20.9812 19.75 22.5 19.75C24.0188 19.75 25.25 20.9812 25.25 22.5C25.25 24.0188 24.0188 25.25 22.5 25.25ZM11.5 19.75C9.98122 19.75 8.75 18.5188 8.75 17C8.75 15.4812 9.98122 14.25 11.5 14.25C13.0188 14.25 14.25 15.4812 14.25 17C14.25 18.5188 13.0188 19.75 11.5 19.75ZM22.5 14.25C20.9812 14.25 19.75 13.0188 19.75 11.5C19.75 9.98122 20.9812 8.75 22.5 8.75C24.0188 8.75 25.25 9.98122 25.25 11.5C25.25 13.0188 24.0188 14.25 22.5 14.25Z" stroke="#221F20" stroke-opacity="0.75" stroke-width="1.5" stroke-linecap="round" stroke-linejoin="round"/>
</g>
<defs>
<clipPath id="clip0_1083_17">
<rect width="18" height="18" fill="white" transform="translate(8 8)"/>
</clipPath>
</defs>
</svg>
