<svg width="24" height="24" viewBox="0 0 24 24" fill="none" xmlns="http://www.w3.org/2000/svg">
<g id="image (9) 1" clip-path="url(#clip0_659_875)">
<path id="Vector" d="M0.046875 8.08447C0.199828 7.73258 0.296297 7.38125 0.450375 7.05013C0.687491 6.54021 1.01038 6.07478 1.40498 5.67411C2.15344 4.91314 3.02719 4.325 4.01902 3.90772C4.84927 3.55846 5.70572 3.30444 6.59278 3.18847C7.37691 3.08596 8.16684 3.03819 8.96569 3.10972C9.68044 3.17366 10.3853 3.26657 11.0759 3.45397C12.5419 3.85175 13.8684 4.51077 14.9428 5.60788C15.7307 6.41258 16.2425 7.36949 16.4139 8.49121C16.4549 8.75905 16.4663 9.03355 16.4671 9.30505C16.4721 10.7969 16.4693 12.2888 16.4696 13.7808C16.4696 14.0923 16.4702 14.0931 16.7747 14.0931C18.993 14.0934 21.2114 14.0952 23.4297 14.0912C23.6949 14.0908 23.9027 14.167 24.0383 14.4241C24.0469 16.5166 24.0469 18.5957 24.0396 20.711C23.9036 21.0088 23.6767 21.0644 23.4089 21.0643C18.4664 21.062 13.5239 21.0605 8.58141 21.0653C7.76311 21.0661 6.95123 21.0201 6.14466 20.8768C5.25905 20.7194 4.40709 20.4501 3.60464 20.0517C2.65753 19.5816 1.80061 18.9786 1.12777 18.1457C0.849471 17.8016 0.612215 17.4262 0.420797 17.0272C0.272109 16.718 0.205641 16.3806 0.046875 16.0781V8.08447ZM13.4289 19.958C13.4685 20.0698 13.5655 20.044 13.6469 20.0444C14.1234 20.0465 14.6001 20.0386 15.0763 20.049C15.2663 20.0532 15.3195 19.9786 15.3146 19.8004C15.3049 19.4492 15.3108 19.0975 15.3125 18.746C15.3141 18.42 15.4937 18.2309 15.807 18.2211C16.0967 18.2121 16.3251 18.445 16.328 18.759C16.331 19.087 16.3425 19.4159 16.3242 19.7429C16.3111 19.9738 16.3724 20.0631 16.6195 20.0513C17.0404 20.0312 17.4633 20.0341 17.8845 20.0503C18.1127 20.0591 18.1869 19.982 18.1752 19.7571C18.1589 19.4456 18.1627 19.1322 18.1742 18.8201C18.1884 18.4351 18.3991 18.2117 18.7176 18.22C19.0472 18.2285 19.2323 18.4475 19.2343 18.8358C19.2361 19.1716 19.2403 19.5076 19.2327 19.8433C19.2292 19.9965 19.2863 20.0499 19.4379 20.0477C19.883 20.0414 20.3283 20.0461 20.7735 20.0459C21.0764 20.0458 21.0769 20.0455 21.0772 19.7324C21.0777 19.0528 21.072 18.3732 21.0798 17.6938C21.0855 17.2143 21.4564 16.9765 21.8714 17.1736C22.1091 17.2865 22.134 17.5111 22.1376 17.7284C22.1473 18.3141 22.1412 18.9 22.1413 19.4859C22.1415 20.0493 22.1416 20.0394 22.7124 20.0512C22.9395 20.0559 23.0052 19.983 23.0039 19.7585C22.9951 18.3213 22.9952 16.8839 23.0039 15.4467C23.0053 15.2219 22.9374 15.1538 22.7115 15.1528C17.6673 15.1311 12.6229 15.2174 7.57903 15.1098C7.33078 15.1045 7.08117 15.089 6.83536 15.0552C5.88506 14.9242 4.95942 14.695 4.07803 14.3098C3.20991 13.9305 2.39611 13.4639 1.71994 12.7861C1.50211 12.5676 1.27528 12.3581 1.05891 12.0802C1.05375 12.1906 1.04789 12.2581 1.04784 12.3256C1.04728 13.2004 1.04395 14.0753 1.05019 14.9501C1.05169 15.1668 1.06753 15.3865 1.10639 15.5994C1.30139 16.6678 1.88592 17.5079 2.69911 18.1912C3.52636 18.8863 4.48055 19.3534 5.52295 19.6365C5.89378 19.7373 6.26377 19.8477 6.65025 19.8768C6.69881 19.7779 6.68573 19.6909 6.6862 19.6064C6.68789 19.3175 6.68048 19.0282 6.68963 18.7395C6.69933 18.4342 6.88959 18.2414 7.18186 18.2203C7.45092 18.2008 7.64123 18.3488 7.70892 18.6383C7.8008 19.0315 7.73611 19.431 7.74708 19.8274C7.75148 19.9858 7.79545 20.0513 7.96209 20.0485C8.43061 20.0405 8.8995 20.0398 9.36802 20.0484C9.5452 20.0517 9.59911 19.9821 9.59555 19.8132C9.58767 19.4384 9.58744 19.0632 9.59723 18.6885C9.60417 18.4226 9.84848 18.211 10.1132 18.2206C10.3935 18.2308 10.6063 18.434 10.6088 18.7024C10.6123 19.0695 10.6177 19.4368 10.6069 19.8036C10.6016 19.9835 10.6524 20.0548 10.8438 20.0495C11.2809 20.0373 11.7188 20.0377 12.1559 20.0495C12.3533 20.0548 12.411 19.982 12.409 19.7913C12.4009 19.0649 12.4038 18.3384 12.4077 17.612C12.4093 17.3126 12.6392 17.0859 12.9247 17.0968C13.1762 17.1065 13.4363 17.2944 13.4283 17.6213C13.4096 18.3863 13.4235 19.1521 13.4289 19.958M1.77159 6.94841C1.67541 7.10882 1.57359 7.26613 1.48392 7.4301C0.91275 8.47447 0.886266 9.55025 1.38455 10.6154C1.9207 11.7616 2.85047 12.5369 3.95433 13.1039C4.90856 13.594 5.92641 13.877 6.99675 14.0118C7.90191 14.1259 8.79825 14.1161 9.69291 13.9889C10.5341 13.8694 11.3539 13.6466 12.128 13.2872C13.1364 12.819 14.0363 12.2069 14.6863 11.2799C15.5811 10.0034 15.6725 8.66933 14.9239 7.30302C14.4188 6.38127 13.6276 5.7328 12.7209 5.23925C11.032 4.31989 9.2167 4.01282 7.3072 4.18307C6.33811 4.2695 5.41045 4.49239 4.51322 4.86763C3.42867 5.32124 2.50078 5.97444 1.77159 6.94841ZM15.2383 14.0931C15.4022 14.1107 15.4561 14.0334 15.4545 13.8742C15.4485 13.3052 15.4523 12.7362 15.4511 12.1671C15.451 12.1337 15.466 12.0876 15.3913 12.0719C14.7363 12.8975 13.9202 13.5467 13.0014 14.0933C13.7328 14.0933 14.4641 14.0933 15.2383 14.0931Z" fill="black" fill-opacity="0.7"/>
<path id="Vector_2" d="M10.058 6.71243C10.6032 6.96668 11.0765 7.28398 11.4333 7.75812C12.0652 8.59788 12.0138 9.77806 11.3251 10.5805C10.652 11.3647 9.77226 11.7003 8.77917 11.8352C8.04454 11.9349 7.33368 11.8479 6.6487 11.5961C5.72156 11.2554 4.97085 10.6996 4.66856 9.70437C4.44084 8.95465 4.62576 8.27656 5.10993 7.67356C5.74251 6.88568 6.60482 6.54387 7.57331 6.40427C8.42428 6.2816 9.24534 6.38843 10.058 6.71243ZM5.69634 8.77066C5.51156 9.2966 5.74326 9.72091 6.09642 10.0524C6.59685 10.5221 7.22953 10.7585 7.91329 10.807C8.79604 10.8696 9.62024 10.6817 10.3134 10.0992C10.7947 9.69481 11.0242 9.0732 10.6119 8.46181C10.3736 8.10837 10.039 7.86593 9.65521 7.70552C8.74945 7.32682 7.82915 7.29392 6.90993 7.66362C6.38306 7.87549 5.93784 8.18627 5.69634 8.77066Z" fill="black" fill-opacity="0.7"/>
</g>
<defs>
<clipPath id="clip0_659_875">
<rect width="24" height="24" fill="white"/>
</clipPath>
</defs>
</svg>
