<svg width="22" height="22" viewBox="0 0 22 22" fill="none" xmlns="http://www.w3.org/2000/svg">
<path id="Vector" d="M11.9723 0.402724C11.4353 -0.134241 10.5647 -0.134241 10.0277 0.402724L0.402724 10.0277C-0.134241 10.5647 -0.134241 11.4353 0.402724 11.9723C0.939704 12.5092 1.8103 12.5092 2.34728 11.9723L2.75 11.5695V20.625C2.75 21.3844 3.36562 22 4.12501 22H6.87501C7.6344 22 8.25001 21.3844 8.25001 20.625V17.875C8.25001 17.1156 8.86563 16.5 9.62502 16.5H12.375C13.1344 16.5 13.75 17.1156 13.75 17.875V20.625C13.75 21.3844 14.3656 22 15.125 22H17.875C18.6344 22 19.25 21.3844 19.25 20.625V11.5695L19.6528 11.9723C20.1897 12.5092 21.0604 12.5092 21.5973 11.9723C22.1342 11.4353 22.1342 10.5647 21.5973 10.0277L11.9723 0.402724Z" fill="black"/>
</svg>
