<svg width="22" height="16" viewBox="0 0 22 16" fill="none" xmlns="http://www.w3.org/2000/svg">
<path id="Vector" d="M22 14.2222V3.55556C22 3.55556 11.99 11.0815 11.0165 11.472C10.0595 11.0993 0 3.55556 0 3.55556V14.2222C0 15.7037 0.2915 16 1.65 16H20.35C21.7409 16 22 15.7399 22 14.2222ZM21.9841 1.4643C21.9841 0.385185 21.692 0 20.35 0H1.65C0.2695 0 0 0.462222 0 1.54074L0.0165 1.70667C0.0165 1.70667 9.95445 9.07852 11.0165 9.48148C12.1385 9.01333 22 1.54074 22 1.54074L21.9841 1.4643Z" fill="black"/>
</svg>
