<svg width="22" height="22" viewBox="0 0 22 22" fill="none" xmlns="http://www.w3.org/2000/svg">
<path id="Vector" d="M0 1.375C0 0.615615 0.615615 0 1.375 0H4.3352C5.00735 0 5.58099 0.485939 5.6915 1.14895L6.70805 7.24827C6.80728 7.8437 6.50658 8.43421 5.96667 8.70416L3.83798 9.76851C5.37289 13.5827 8.41731 16.6271 12.2315 18.162L13.2958 16.0333C13.5657 15.4934 14.1563 15.1926 14.7517 15.2919L20.851 16.3085C21.5141 16.419 22 16.9927 22 17.6648V20.625C22 21.3844 21.3844 22 20.625 22H17.875C8.00291 22 0 13.9971 0 4.125V1.375Z" fill="black"/>
</svg>
