<svg width="22" height="26" viewBox="0 0 22 26" fill="none" xmlns="http://www.w3.org/2000/svg">
<g id="Group 147">
<path id="Vector" d="M1 10.3627C1 16.9242 7.06354 22.3503 9.74741 24.4306C10.1322 24.7291 10.3258 24.8789 10.6126 24.9554C10.8358 25.0149 11.164 25.0149 11.3871 24.9554C11.6742 24.8789 11.8672 24.7294 12.2528 24.4306C14.9368 22.3503 21 16.9242 21 10.3626C21 7.87949 19.9465 5.49809 18.071 3.74225C16.1956 1.98643 13.6522 1 11.0001 1C8.34788 1 5.80431 1.98641 3.92893 3.74223C2.05356 5.49808 1 7.87955 1 10.3627Z" stroke="#221F20" stroke-opacity="0.6" stroke-width="1.4" stroke-linecap="round" stroke-linejoin="round"/>
<path id="Vector_2" d="M6 10C6 12.7614 8.23857 15 11 15C13.7614 15 16 12.7614 16 10C16 7.23857 13.7614 5 11 5C8.23857 5 6 7.23857 6 10Z" stroke="black" stroke-opacity="0.6" stroke-width="1.4" stroke-linecap="round" stroke-linejoin="round"/>
</g>
</svg>
