<svg width="20" height="17" viewBox="0 0 20 17" fill="none" xmlns="http://www.w3.org/2000/svg">
<g id="Media / Headphones">
<path id="Vector" d="M17 8C17 4.134 13.866 1 10 1C6.134 1 3 4.134 3 8" stroke="#221F20" stroke-opacity="0.9" stroke-width="1.4" stroke-linecap="round" stroke-linejoin="round"/>
<g id="Vector_2">
<path id="Vector_3" d="M14 13.5V11.5C14 11.0353 14 10.8031 14.0384 10.6099C14.1963 9.81648 14.816 9.19624 15.6093 9.03843C15.8025 9 16.0353 9 16.5 9C16.9647 9 17.1969 9 17.3901 9.03843C18.1836 9.19624 18.8041 9.81648 18.9619 10.6099C19 10.8013 19 11.0312 19 11.4877V11.5V13.5V13.5123C19 13.9688 19 14.1987 18.9619 14.3901C18.8041 15.1836 18.1836 15.8037 17.3901 15.9616C17.1969 16 16.9647 16 16.5 16C16.0353 16 15.8025 16 15.6093 15.9616C14.816 15.8037 14.1963 15.1836 14.0384 14.3901C14 14.1969 14 13.9647 14 13.5Z" stroke="#428BC1" stroke-width="1.4" stroke-linecap="round" stroke-linejoin="round"/>
<path id="Vector_4" d="M6 13.5V11.5V11.4877C6 11.0312 6 10.8013 5.96192 10.6099C5.80411 9.81648 5.18356 9.19624 4.39019 9.03843C4.19699 9 3.96421 9 3.49956 9C3.03491 9 2.80257 9 2.60937 9.03843C1.816 9.19624 1.19624 9.81648 1.03843 10.6099C1 10.8031 1 11.0353 1 11.5V13.5C1 13.9647 1 14.1969 1.03843 14.3901C1.19624 15.1836 1.816 15.8037 2.60937 15.9616C2.80257 16 3.03491 16 3.49956 16C3.9642 16 4.19699 16 4.39019 15.9616C5.18356 15.8037 5.80411 15.1836 5.96192 14.3901C6 14.1987 6 13.9688 6 13.5123V13.5Z" stroke="#428BC1" stroke-width="1.4" stroke-linecap="round" stroke-linejoin="round"/>
</g>
</g>
</svg>
