<svg width="21" height="24" viewBox="0 0 21 24" fill="none" xmlns="http://www.w3.org/2000/svg">
<path id="Vector" d="M19.4518 5.85294H15.6777V5.55987C15.6777 2.48923 13.2068 0 10.1611 0C7.1155 0 4.64457 2.4894 4.64457 5.55987V5.85294H0.870443C0.390319 5.85294 0 6.24643 0 6.73212V20.7812C0 22.5594 1.42899 24 3.19274 24H17.1298C18.8936 24 20.3226 22.5593 20.3226 20.7812V6.73212C20.3226 6.24644 19.9319 5.85294 19.4518 5.85294ZM6.38683 5.55987C6.38683 3.459 8.07712 1.75496 10.161 1.75496C12.2448 1.75496 13.9351 3.45904 13.9351 5.55987V5.85294H6.38666L6.38683 5.55987ZM18.5814 20.7794V20.7811C18.5814 21.1696 18.4278 21.5417 18.1551 21.815C17.8841 22.09 17.5133 22.2447 17.1295 22.2447H3.19245C2.39058 22.2447 1.74059 21.5894 1.74059 20.781V7.60949H4.64428V10.2438C4.64428 10.7278 5.03459 11.1213 5.51635 11.1213C5.99647 11.1213 6.38679 10.7278 6.38679 10.2438V7.60949H13.9352V10.2438C13.9352 10.7278 14.3256 11.1213 14.8057 11.1213C15.2874 11.1213 15.6777 10.7278 15.6777 10.2438V7.60949H18.5814V20.7794Z" fill="#221F20" fill-opacity="0.6"/>
</svg>
