<svg width="22" height="22" viewBox="0 0 22 22" fill="none" xmlns="http://www.w3.org/2000/svg">
<path d="M11.1198 11.7805C11.0401 11.7705 10.9595 11.7705 10.8798 11.7805C10.0317 11.7519 9.228 11.3949 8.63831 10.7847C8.04866 10.1745 7.71929 9.359 7.71977 8.51047C7.71977 6.70047 9.1798 5.23047 10.9998 5.23047C11.8592 5.22898 12.6848 5.56528 13.2986 6.16688C13.9124 6.76847 14.2652 7.58716 14.2809 8.44646C14.2966 9.3058 13.9741 10.1368 13.3827 10.7605C12.7914 11.3842 11.9787 11.7505 11.1198 11.7805ZM17.7398 18.3805C15.902 20.0695 13.4958 21.0049 10.9998 21.0005C8.39977 21.0005 6.03977 20.0105 4.25977 18.3805C4.35977 17.4405 4.95977 16.5205 6.02977 15.8005C8.76977 13.9805 13.2498 13.9805 15.9698 15.8005C17.0398 16.5205 17.6398 17.4405 17.7398 18.3805Z" stroke="black" stroke-opacity="0.8" stroke-width="1.5" stroke-linecap="round" stroke-linejoin="round"/>
<path d="M11 21C16.523 21 21 16.523 21 11C21 5.477 16.523 1 11 1C5.477 1 1 5.477 1 11C1 16.523 5.477 21 11 21Z" stroke="#221F20" stroke-opacity="0.8" stroke-width="1.5" stroke-linecap="round" stroke-linejoin="round"/>
</svg>
